<mxfile host="app.diagrams.net" modified="2023-10-28T12:43:39.284Z" agent="Mozilla/5.0 (X11; Ubuntu; Linux x86_64; rv:109.0) Gecko/20100101 Firefox/119.0" etag="nmKgTnMZ5LpV4c6jwJfR" version="22.0.8" type="device">
  <diagram name="Page-1" id="z91UEXuVqISl3AmtUzZm">
    <mxGraphModel dx="1434" dy="795" grid="1" gridSize="10" guides="1" tooltips="1" connect="1" arrows="1" fold="1" page="1" pageScale="1" pageWidth="850" pageHeight="1100" math="0" shadow="0">
      <root>
        <mxCell id="0" />
        <mxCell id="1" parent="0" />
        <mxCell id="RnTBXmv3p8qLuAaVH0MS-1" value="Человек" style="swimlane;fontStyle=0;childLayout=stackLayout;horizontal=1;startSize=26;horizontalStack=0;resizeParent=1;resizeParentMax=0;resizeLast=0;collapsible=1;marginBottom=0;align=center;fontSize=14;" parent="1" vertex="1">
          <mxGeometry x="10" y="290" width="160" height="130" as="geometry" />
        </mxCell>
        <mxCell id="RnTBXmv3p8qLuAaVH0MS-2" value="ФИО" style="text;strokeColor=none;fillColor=none;spacingLeft=4;spacingRight=4;overflow=hidden;rotatable=0;points=[[0,0.5],[1,0.5]];portConstraint=eastwest;fontSize=12;whiteSpace=wrap;html=1;" parent="RnTBXmv3p8qLuAaVH0MS-1" vertex="1">
          <mxGeometry y="26" width="160" height="30" as="geometry" />
        </mxCell>
        <mxCell id="RnTBXmv3p8qLuAaVH0MS-3" value="Дата рождения" style="text;strokeColor=none;fillColor=none;spacingLeft=4;spacingRight=4;overflow=hidden;rotatable=0;points=[[0,0.5],[1,0.5]];portConstraint=eastwest;fontSize=12;whiteSpace=wrap;html=1;" parent="RnTBXmv3p8qLuAaVH0MS-1" vertex="1">
          <mxGeometry y="56" width="160" height="30" as="geometry" />
        </mxCell>
        <mxCell id="RnTBXmv3p8qLuAaVH0MS-4" value="Номер телефона для связи" style="text;strokeColor=none;fillColor=none;spacingLeft=4;spacingRight=4;overflow=hidden;rotatable=0;points=[[0,0.5],[1,0.5]];portConstraint=eastwest;fontSize=12;whiteSpace=wrap;html=1;" parent="RnTBXmv3p8qLuAaVH0MS-1" vertex="1">
          <mxGeometry y="86" width="160" height="44" as="geometry" />
        </mxCell>
        <mxCell id="RnTBXmv3p8qLuAaVH0MS-18" value="Объявление" style="swimlane;fontStyle=0;childLayout=stackLayout;horizontal=1;startSize=26;horizontalStack=0;resizeParent=1;resizeParentMax=0;resizeLast=0;collapsible=1;marginBottom=0;align=center;fontSize=14;" parent="1" vertex="1">
          <mxGeometry x="220" y="360" width="160" height="170" as="geometry" />
        </mxCell>
        <mxCell id="RnTBXmv3p8qLuAaVH0MS-19" value="Статус (актуальность)&lt;br&gt;&lt;br&gt;Описание&lt;br&gt;&lt;br&gt;Цена" style="text;strokeColor=none;fillColor=none;spacingLeft=4;spacingRight=4;overflow=hidden;rotatable=0;points=[[0,0.5],[1,0.5]];portConstraint=eastwest;fontSize=12;whiteSpace=wrap;html=1;" parent="RnTBXmv3p8qLuAaVH0MS-18" vertex="1">
          <mxGeometry y="26" width="160" height="144" as="geometry" />
        </mxCell>
        <mxCell id="RnTBXmv3p8qLuAaVH0MS-25" value="" style="edgeStyle=entityRelationEdgeStyle;fontSize=12;html=1;endArrow=ERoneToMany;startArrow=ERmandOne;rounded=0;entryX=-0.03;entryY=0.098;entryDx=0;entryDy=0;exitX=1.019;exitY=0.121;exitDx=0;exitDy=0;exitPerimeter=0;entryPerimeter=0;" parent="1" source="RnTBXmv3p8qLuAaVH0MS-1" target="RnTBXmv3p8qLuAaVH0MS-18" edge="1">
          <mxGeometry width="100" height="100" relative="1" as="geometry">
            <mxPoint x="170" y="470" as="sourcePoint" />
            <mxPoint x="220" y="411" as="targetPoint" />
            <Array as="points">
              <mxPoint x="200" y="470" />
              <mxPoint x="170" y="411" />
            </Array>
          </mxGeometry>
        </mxCell>
        <mxCell id="RnTBXmv3p8qLuAaVH0MS-28" value="Автомобиль" style="swimlane;fontStyle=0;childLayout=stackLayout;horizontal=1;startSize=26;horizontalStack=0;resizeParent=1;resizeParentMax=0;resizeLast=0;collapsible=1;marginBottom=0;align=center;fontSize=14;" parent="1" vertex="1">
          <mxGeometry x="425" y="282" width="170" height="146" as="geometry" />
        </mxCell>
        <mxCell id="RnTBXmv3p8qLuAaVH0MS-31" value="Год выпуска&lt;br&gt;&lt;br&gt;Цвет&lt;br&gt;&lt;br&gt;Пробег&lt;br&gt;&lt;br&gt;VIN" style="text;strokeColor=none;fillColor=none;spacingLeft=4;spacingRight=4;overflow=hidden;rotatable=0;points=[[0,0.5],[1,0.5]];portConstraint=eastwest;fontSize=12;whiteSpace=wrap;html=1;" parent="RnTBXmv3p8qLuAaVH0MS-28" vertex="1">
          <mxGeometry y="26" width="170" height="120" as="geometry" />
        </mxCell>
        <mxCell id="RnTBXmv3p8qLuAaVH0MS-34" value="Марка автомобиля" style="swimlane;fontStyle=0;childLayout=stackLayout;horizontal=1;startSize=26;horizontalStack=0;resizeParent=1;resizeParentMax=0;resizeLast=0;collapsible=1;marginBottom=0;align=center;fontSize=14;" parent="1" vertex="1">
          <mxGeometry x="560" y="440" width="160" height="86" as="geometry" />
        </mxCell>
        <mxCell id="RnTBXmv3p8qLuAaVH0MS-35" value="Название" style="text;strokeColor=none;fillColor=none;spacingLeft=4;spacingRight=4;overflow=hidden;rotatable=0;points=[[0,0.5],[1,0.5]];portConstraint=eastwest;fontSize=12;whiteSpace=wrap;html=1;" parent="RnTBXmv3p8qLuAaVH0MS-34" vertex="1">
          <mxGeometry y="26" width="160" height="30" as="geometry" />
        </mxCell>
        <mxCell id="RnTBXmv3p8qLuAaVH0MS-36" value="Страна производителя" style="text;strokeColor=none;fillColor=none;spacingLeft=4;spacingRight=4;overflow=hidden;rotatable=0;points=[[0,0.5],[1,0.5]];portConstraint=eastwest;fontSize=12;whiteSpace=wrap;html=1;" parent="RnTBXmv3p8qLuAaVH0MS-34" vertex="1">
          <mxGeometry y="56" width="160" height="30" as="geometry" />
        </mxCell>
        <mxCell id="RnTBXmv3p8qLuAaVH0MS-38" value="Модель автомобиля" style="swimlane;fontStyle=0;childLayout=stackLayout;horizontal=1;startSize=26;horizontalStack=0;resizeParent=1;resizeParentMax=0;resizeLast=0;collapsible=1;marginBottom=0;align=center;fontSize=14;" parent="1" vertex="1">
          <mxGeometry x="1040" y="470" width="160" height="86" as="geometry" />
        </mxCell>
        <mxCell id="RnTBXmv3p8qLuAaVH0MS-39" value="Название" style="text;strokeColor=none;fillColor=none;spacingLeft=4;spacingRight=4;overflow=hidden;rotatable=0;points=[[0,0.5],[1,0.5]];portConstraint=eastwest;fontSize=12;whiteSpace=wrap;html=1;" parent="RnTBXmv3p8qLuAaVH0MS-38" vertex="1">
          <mxGeometry y="26" width="160" height="30" as="geometry" />
        </mxCell>
        <mxCell id="RnTBXmv3p8qLuAaVH0MS-40" value="Тип кузова" style="text;strokeColor=none;fillColor=none;spacingLeft=4;spacingRight=4;overflow=hidden;rotatable=0;points=[[0,0.5],[1,0.5]];portConstraint=eastwest;fontSize=12;whiteSpace=wrap;html=1;" parent="RnTBXmv3p8qLuAaVH0MS-38" vertex="1">
          <mxGeometry y="56" width="160" height="30" as="geometry" />
        </mxCell>
        <mxCell id="_Pb5ZfGO3yIhYfg2HWeX-1" value="" style="edgeStyle=entityRelationEdgeStyle;fontSize=12;html=1;endArrow=ERoneToMany;startArrow=ERmandOne;rounded=0;exitX=-0.021;exitY=0.085;exitDx=0;exitDy=0;exitPerimeter=0;entryX=1.018;entryY=0.08;entryDx=0;entryDy=0;entryPerimeter=0;" parent="1" source="RnTBXmv3p8qLuAaVH0MS-28" target="RnTBXmv3p8qLuAaVH0MS-18" edge="1">
          <mxGeometry width="100" height="100" relative="1" as="geometry">
            <mxPoint x="250" y="610" as="sourcePoint" />
            <mxPoint x="382.55999999999995" y="419.13" as="targetPoint" />
          </mxGeometry>
        </mxCell>
        <mxCell id="_Pb5ZfGO3yIhYfg2HWeX-2" value="Модификация" style="swimlane;fontStyle=0;childLayout=stackLayout;horizontal=1;startSize=26;horizontalStack=0;resizeParent=1;resizeParentMax=0;resizeLast=0;collapsible=1;marginBottom=0;align=center;fontSize=14;" parent="1" vertex="1">
          <mxGeometry x="630" y="304" width="160" height="116" as="geometry" />
        </mxCell>
        <mxCell id="_Pb5ZfGO3yIhYfg2HWeX-3" value="Объём двигателя" style="text;strokeColor=none;fillColor=none;spacingLeft=4;spacingRight=4;overflow=hidden;rotatable=0;points=[[0,0.5],[1,0.5]];portConstraint=eastwest;fontSize=12;whiteSpace=wrap;html=1;" parent="_Pb5ZfGO3yIhYfg2HWeX-2" vertex="1">
          <mxGeometry y="26" width="160" height="30" as="geometry" />
        </mxCell>
        <mxCell id="_Pb5ZfGO3yIhYfg2HWeX-4" value="Тип трансмиссии" style="text;strokeColor=none;fillColor=none;spacingLeft=4;spacingRight=4;overflow=hidden;rotatable=0;points=[[0,0.5],[1,0.5]];portConstraint=eastwest;fontSize=12;whiteSpace=wrap;html=1;" parent="_Pb5ZfGO3yIhYfg2HWeX-2" vertex="1">
          <mxGeometry y="56" width="160" height="30" as="geometry" />
        </mxCell>
        <mxCell id="_Pb5ZfGO3yIhYfg2HWeX-5" value="Подогрев сидений и т.д." style="text;strokeColor=none;fillColor=none;spacingLeft=4;spacingRight=4;overflow=hidden;rotatable=0;points=[[0,0.5],[1,0.5]];portConstraint=eastwest;fontSize=12;whiteSpace=wrap;html=1;" parent="_Pb5ZfGO3yIhYfg2HWeX-2" vertex="1">
          <mxGeometry y="86" width="160" height="30" as="geometry" />
        </mxCell>
        <mxCell id="_Pb5ZfGO3yIhYfg2HWeX-8" value="" style="edgeStyle=entityRelationEdgeStyle;fontSize=12;html=1;endArrow=ERoneToMany;startArrow=ERoneToMany;rounded=0;exitX=1.012;exitY=0.134;exitDx=0;exitDy=0;entryX=0;entryY=0.25;entryDx=0;entryDy=0;exitPerimeter=0;" parent="1" source="_Pb5ZfGO3yIhYfg2HWeX-2" target="_Pb5ZfGO3yIhYfg2HWeX-39" edge="1">
          <mxGeometry width="100" height="100" relative="1" as="geometry">
            <mxPoint x="530" y="720" as="sourcePoint" />
            <mxPoint x="630" y="620" as="targetPoint" />
          </mxGeometry>
        </mxCell>
        <mxCell id="_Pb5ZfGO3yIhYfg2HWeX-43" value="" style="edgeStyle=entityRelationEdgeStyle;fontSize=12;html=1;endArrow=ERoneToMany;startArrow=ERmandOne;rounded=0;entryX=1;entryY=0.25;entryDx=0;entryDy=0;exitX=0.002;exitY=0.17;exitDx=0;exitDy=0;exitPerimeter=0;" parent="1" source="RnTBXmv3p8qLuAaVH0MS-38" target="_Pb5ZfGO3yIhYfg2HWeX-39" edge="1">
          <mxGeometry width="100" height="100" relative="1" as="geometry">
            <mxPoint x="1120" y="497.6" as="sourcePoint" />
            <mxPoint x="970.7999999999997" y="460.0000000000001" as="targetPoint" />
          </mxGeometry>
        </mxCell>
        <mxCell id="_Pb5ZfGO3yIhYfg2HWeX-47" value="" style="edgeStyle=entityRelationEdgeStyle;fontSize=12;html=1;endArrow=ERoneToMany;startArrow=ERmandOne;rounded=0;exitX=1;exitY=0.5;exitDx=0;exitDy=0;entryX=-0.004;entryY=0.739;entryDx=0;entryDy=0;entryPerimeter=0;" parent="1" source="RnTBXmv3p8qLuAaVH0MS-35" target="_Pb5ZfGO3yIhYfg2HWeX-39" edge="1">
          <mxGeometry width="100" height="100" relative="1" as="geometry">
            <mxPoint x="730" y="717" as="sourcePoint" />
            <mxPoint x="679" y="538" as="targetPoint" />
          </mxGeometry>
        </mxCell>
        <mxCell id="_Pb5ZfGO3yIhYfg2HWeX-39" value="Поколение" style="swimlane;fontStyle=0;childLayout=stackLayout;horizontal=1;startSize=26;horizontalStack=0;resizeParent=1;resizeParentMax=0;resizeLast=0;collapsible=1;marginBottom=0;align=center;fontSize=14;" parent="1" vertex="1">
          <mxGeometry x="840" y="440" width="160" height="80" as="geometry" />
        </mxCell>
        <mxCell id="_Pb5ZfGO3yIhYfg2HWeX-41" value="Год начала выпуска&lt;br&gt;&lt;br&gt;Год окончания выпуска" style="text;strokeColor=none;fillColor=none;spacingLeft=4;spacingRight=4;overflow=hidden;rotatable=0;points=[[0,0.5],[1,0.5]];portConstraint=eastwest;fontSize=12;whiteSpace=wrap;html=1;" parent="_Pb5ZfGO3yIhYfg2HWeX-39" vertex="1">
          <mxGeometry y="26" width="160" height="54" as="geometry" />
        </mxCell>
        <mxCell id="wY00jDHkzHLUeGOrBolt-1" value="" style="edgeStyle=entityRelationEdgeStyle;fontSize=12;html=1;endArrow=ERoneToMany;startArrow=ERoneToMany;rounded=0;exitX=0.989;exitY=0.071;exitDx=0;exitDy=0;exitPerimeter=0;entryX=-0.015;entryY=0.16;entryDx=0;entryDy=0;entryPerimeter=0;" parent="1" source="RnTBXmv3p8qLuAaVH0MS-28" target="_Pb5ZfGO3yIhYfg2HWeX-3" edge="1">
          <mxGeometry width="100" height="100" relative="1" as="geometry">
            <mxPoint x="620" y="210" as="sourcePoint" />
            <mxPoint x="720" y="110" as="targetPoint" />
          </mxGeometry>
        </mxCell>
      </root>
    </mxGraphModel>
  </diagram>
</mxfile>
